<?xml version="1.0" encoding="utf-8"?>
<!-- Generator: Adobe Illustrator 23.1.1, SVG Export Plug-In . SVG Version: 6.00 Build 0)  -->
<svg version="1.1" id="Layer_1" xmlns="http://www.w3.org/2000/svg" xmlns:xlink="http://www.w3.org/1999/xlink" x="0px" y="0px"
	 viewBox="0 0 80 80" style="enable-background:new 0 0 80 80;" xml:space="preserve">
<style type="text/css">
	.st0{opacity:0.55;fill:#FFFFFF;}
</style>
<title>logo-footer</title>
<path class="st0" d="M65.9,26.6c2.9-2.9,2.9-7.5,0-10.4c-2.9-2.9-7.5-2.9-10.4,0c-0.3,0.3-0.5,0.6-0.7,0.9c-2.9-2.2-7-2.1-9.7,0.6
	c-2.9,2.9-2.9,7.5,0,10.4c0.8,0.8,1.7,1.4,2.8,1.7L40,37.6l-7.8-7.8c1-0.4,1.9-0.9,2.8-1.7c2.9-2.9,2.9-7.5,0-10.4
	c-2.6-2.6-6.8-2.8-9.7-0.6c-0.2-0.3-0.5-0.6-0.7-0.9c-2.9-2.9-7.5-2.9-10.4,0s-2.9,7.5,0,10.4c0.3,0.3,0.6,0.5,0.9,0.7
	c-2.2,2.9-2.1,7,0.6,9.7c2.9,2.9,7.5,2.9,10.4,0c0.8-0.8,1.4-1.7,1.7-2.8l7.8,7.8L16.1,61.5l4.5,4.5l4.5-4.5l3,3l7.4-7.4l-3-3
	l7.6-7.6l7.6,7.6l-3,3l7.4,7.4l3-3l4.5,4.5l4.5-4.5L44.5,42.1l7.8-7.8c0.4,1,0.9,2,1.7,2.8c2.9,2.9,7.5,2.9,10.4,0
	c2.6-2.6,2.8-6.8,0.6-9.7C65.3,27.1,65.6,26.8,65.9,26.6z M31.9,20.6c1.2,1.2,1.2,3.2,0,4.5c-1.2,1.2-3.2,1.2-4.5,0
	c-1.2-1.2-1.2-3.2,0-4.5C28.7,19.4,30.7,19.4,31.9,20.6z M17.1,19.1c1.2-1.2,3.2-1.2,4.5,0c1.2,1.2,1.2,3.2,0,4.5
	c-1.2,1.2-3.2,1.2-4.5,0C15.8,22.4,15.8,20.4,17.1,19.1z M23,34c-1.2,1.2-3.2,1.2-4.5,0c-1.2-1.2-1.2-3.2,0-4.5
	c1.2-1.2,3.2-1.2,4.5,0C24.2,30.8,24.2,32.8,23,34z M58.5,19.1c1.2-1.2,3.2-1.2,4.5,0c1.2,1.2,1.2,3.2,0,4.5c-1.2,1.2-3.2,1.2-4.5,0
	C57.2,22.4,57.2,20.4,58.5,19.1z M48.1,20.6c1.2-1.2,3.2-1.2,4.5,0c1.2,1.2,1.2,3.2,0,4.5c-1.2,1.2-3.2,1.2-4.5,0
	C46.8,23.9,46.8,21.9,48.1,20.6z M61.4,34c-1.2,1.2-3.2,1.2-4.5,0c-1.2-1.2-1.2-3.2,0-4.5c1.2-1.2,3.2-1.2,4.5,0
	C62.7,30.8,62.7,32.8,61.4,34z"/>
</svg>
