<svg xmlns="http://www.w3.org/2000/svg" viewBox="0 0 115.8305 115.8293"><defs><style>.a{fill:#fff;opacity:0.65;}</style></defs><title>logo-footer</title><path class="a" d="M58.334,31.6436a26.7415,26.7415,0,0,0,.1526,53.4825h.0356V79.63a23.9945,23.9945,0,0,0-.1882-47.9867Zm.1882,45.892c-.0381,0-.0738.005-.1119.005a21.0808,21.0808,0,1,1,.1119-.005ZM83.6963,32.6248A36.8494,36.8494,0,0,0,58.07,21.92c-.1323-.0025-.2644-.01-.3991-.01a36.9719,36.9719,0,1,0,0,73.9437c.2694,0,.5364-.0127.8058-.02V91.7813s.0331.0026.0509.0026a34.9265,34.9265,0,0,0,25.169-59.1591Zm-5.585,50.1195a30.9951,30.9951,0,0,1-19.6349,7.1889V87.8767c-.3508.01-.694.0509-1.0473.0509A29.9849,29.9849,0,0,1,43.16,31.57,31.1234,31.1234,0,0,1,78.1113,82.7443ZM72.8391,13.8288a47.0086,47.0086,0,1,0-14.3982,91.7584h.033l.0153-2.5166c.46.01.9177.0356,1.38.0356a45.5568,45.5568,0,0,0,45.5666-45.053c0-.1754.0128-.3509.0128-.5288A45.5885,45.5885,0,0,0,72.8391,13.8288Zm.8592,84.7831a42.0746,42.0746,0,0,1-15.0211,2.7607c-.0635,0-.1245-.0026-.188-.0026V97.8593a42.2066,42.2066,0,0,1-38.81-26.0586c-5.5938-14.97.2733-29.29,2.4429-33.7485a42.2077,42.2077,0,0,1,78.72,19.36c.0229.58.0406,1.1667.0406,1.754A42.22,42.22,0,0,1,73.6983,98.6119ZM57.9147,0a57.9147,57.9147,0,1,0,0,115.8293c.1677,0,.3329-.0128.4982-.0128A57.9093,57.9093,0,0,0,57.9147,0ZM91.6835,102.3181a53.4244,53.4244,0,0,1-32.8969,11.2767c-.1246,0-.2492-.0077-.3737-.0077v-6.5255c-.3585.0052-.7169.028-1.0778.028a50.4435,50.4435,0,0,1,0-100.887c.2719,0,.5414.0153.8108.0178.2136,0,.4271-.0127.6407-.0127a53.6823,53.6823,0,0,1,32.8969,96.11Z"/></svg>