<svg xmlns="http://www.w3.org/2000/svg" viewBox="0 0 500 500"><defs><style>.a{opacity:0.5;}.b{fill:#fff;}.c{opacity:0.75;}</style></defs><title>Snowflake-RGB-White-Opacity</title><g class="a"><path class="b" d="M131.29,182.119c-3.3,4.63-7.9,5.49-13.92,4.31-7.69-1.51-15.57-2.05-23.37-2.93a6.5,6.5,0,0,0-2.45.47c-.27.07-.46.45-.98,1,4.33,8.23,11.71,13,19.78,16.96,4.55,2.23,7.75,5.22,7.75,10.79,0,7.77-6.63,13.37-13.86,12.07-.2-1.26-.37-2.54-.52-3.81-.61-5.2-4.03-8.37-9.23-8.28a8.468,8.468,0,0,0-7.17,3.66,72.545,72.545,0,0,1-16.9-17.29c-.47-.67-1-1.3-2.54-3.28-3.1,4.81-6.04,8.91-8.49,13.29-2.26,4.04-4.21,8.3-9.32,9.22a12.376,12.376,0,0,1-12.6-4.71c-2.98-3.74-2.89-7.88-1.25-11.96a66.1,66.1,0,0,1,20.08-26.94,6.748,6.748,0,0,0,2.78-6.85c-1.31-11.27-.28-22.43,4.44-32.75,1.54-3.37,5.38-7.02,8.84-7.91,9.25-2.37,16.12,5.38,13.94,14.75-.99,4.27-2.3,8.46-3.26,12.74-.39,1.72-.22,3.57-.34,6.27,10.05-2.2,19.49-2.75,28.67-1.11a9.487,9.487,0,0,0,.39,2.15,9.019,9.019,0,0,0,7.34,6.57c3.47.75,5.93-1.1,8.41-3.06a22,22,0,0,1,3.48,2.59C134.94,171.709,134.37,177.789,131.29,182.119Z"/><path class="b" d="M37.642,177.046c10.489-5.007,13.294-13.615,10-23.614-3.015-9.164-15.086-13.577-24.2-9.67a18.309,18.309,0,0,0-9.442,23.379C17.81,176.189,28.984,181.178,37.642,177.046Z"/><path class="b" d="M367.36,84.589c-4.05,2.92-8.31,1.6-12.63.45-4.92-1.31-9.94-2.26-14.23-3.22-.47,10.54-.66,19.9-1.35,29.11a9.561,9.561,0,0,0-1.65.35c-3.78,1.15-6.37,3.75-6.37,7.35,0,2.88,1.46,6.1,3.15,8.57.04.05.08.11.12.16a11.591,11.591,0,0,1-13.85,5.02c-6.64-2.4-9.61-8.11-7.39-15,2.68-8.3,4.59-16.62,2.57-25.36a17.9,17.9,0,0,0-.99-2.39c-7.96,5-13.14,11.81-16.91,19.83-2.14,4.54-5.06,7.9-10.55,8.12-8.13.34-13.93-6.26-12.55-13.77,1.35-.2,2.69-.39,4.03-.59,5.41-.81,8.39-4.45,8.03-9.83a8.305,8.305,0,0,0-3.65-6.48,72.359,72.359,0,0,1,16.93-16.69c.8-.58,1.6-1.17,3.77-2.75-4.86-3.14-8.95-6.09-13.33-8.53-4.05-2.26-8.26-4.22-9.23-9.32-.91-4.8.22-8.93,4.22-12.24,3.88-3.22,8.09-3.32,12.35-1.65a63.513,63.513,0,0,1,25.97,18.9c2.67,3.23,5.17,4.35,9.34,3.89a63.322,63.322,0,0,1,31.8,4.52C374.49,67.029,375.71,78.579,367.36,84.589Z"/><path class="b" d="M346.362,46.958c8.976-3.236,13.3-14.752,9.53-23.795a18.3,18.3,0,0,0-23.278-9.686c-9.179,3.75-14.464,15.353-10.088,24.027C327.1,46.565,335.175,50.99,346.362,46.958Z"/><path class="b" d="M225.25,395.179c-1.35.21-2.71.41-4.06.61-5.6.83-8.35,4.16-8,9.77a8.3,8.3,0,0,0,3.66,6.64,68.6,68.6,0,0,1-14.3,14.59c-1.72,1.31-3.43,2.63-5.71,4.37,4.12,4.75,9.01,7.44,14.24,9.79,9.37,4.2,10.77,14.93,2.85,21.26-4.15,3.32-8.67,2.51-12.93.64a66.034,66.034,0,0,1-25.64-19.36,7.062,7.062,0,0,0-7.26-3,66.789,66.789,0,0,1-32.36-4.16c-7.32-2.77-10.37-9.11-7.96-15.74,2.45-6.71,9.18-9.24,16.75-6.86,5.15,1.63,10.55,2.51,17.02,3.99-2.23-10.67-2.68-20.34-1.17-29.57a8.149,8.149,0,0,0,1.63-.3,9.4,9.4,0,0,0,7.02-7.45c.83-3.67-1.34-6.24-3.42-8.88a11.765,11.765,0,0,1,9.02-5.47c4.72-.55,9.17,1.52,11.01,5.74a18.261,18.261,0,0,1,.71,11c-2.17,8.58-4.24,16.99-1.07,27.53,4.46-4.5,8.5-8.09,11.89-12.21,2.33-2.82,3.81-6.35,5.56-9.63,3.64-6.82,9.31-8.87,16.09-5.71A11.067,11.067,0,0,1,225.25,395.179Z"/><path class="b" d="M153.327,451.925c-8.526,3.751-12.89,15.226-9.16,24.084,3.7,8.787,14.779,13.186,23.76,9.436,8.71-3.638,13.335-14.93,9.749-23.8C174.164,452.948,162.018,448.1,153.327,451.925Z"/><path class="b" d="M463.84,297.349c-3.79,9.37-9.3,17.76-17.03,24.25-4.54,3.81-6.39,7.52-5.67,13.6a56.5,56.5,0,0,1-4.65,29.24c-4.12,9.51-14.89,10.82-21.15,2.84-3.05-3.89-2.32-8.1-1.03-12.5,1.49-5.06,2.47-10.26,3.88-16.3-4.9.54-8.34.93-11.78,1.3a64.1,64.1,0,0,1-17.74-.53,8.373,8.373,0,0,0-.3-1.64c-2.11-7.42-10.03-9.61-15.75-4.29-.17.16-.34.31-.51.46-5.04-3.24-6.88-8.18-4.94-13.6,2.66-7.42,7.98-9.73,16.34-7.05,7.81,2.52,15.71,4.02,23.91,2.16a26.176,26.176,0,0,0,2.6-.92c-5.39-8.41-12.48-13.56-20.71-17.41-5.47-2.56-7.8-6.58-7.28-12.05.5-5.24,3.48-9.14,8.98-10.3a13.347,13.347,0,0,1,4.6-.08c.18,1.49.37,2.97.68,4.43,1.17,5.51,4.92,8.01,10.4,7.32a8.25,8.25,0,0,0,5.9-3.64,77,77,0,0,1,18.73,19.81c5.08-3.39,7.01-8.62,9.95-13.21,2.12-3.31,5.27-6.72,8.77-8.19,4.36-1.84,8.83-.02,12.15,3.97C465.41,288.889,465.57,293.089,463.84,297.349Z"/><path class="b" d="M485.96,331.813c-3.794-8.816-15.252-13.682-23.714-10.071-8.856,3.779-13.74,15.83-9.842,24.285,4.067,8.823,15.245,13.246,23.909,9.46C485.261,351.577,489.738,340.592,485.96,331.813Z"/><path class="b" d="M216.94,117.159c-5.85,3.19-13.09-.11-16.31-6.83a48.049,48.049,0,0,0-14.73-18.4c-.69-.5-1.29-1.13-2.76-2.45-2.84,10.96-1.11,19.58,1.95,28.08,2.04,5.69.54,10.7-4.34,14.27-4.07,2.98-10.72,3.43-13.88-.56-.69-.87-1.37-1.79-2.01-2.75l.75-.99c2.09-2.68,4.27-5.28,3.42-8.98-1.2-5.21-5.52-8.05-9.92-7.58a156.425,156.425,0,0,1-.41-22.6c.21-4.63-1.09-5.53-4.84-4.75-4.44.93-8.86,2.03-13.22,3.31-6.51,1.92-12.16-.73-14.68-7.11-2.44-6.21.1-12.13,6.39-15.05a59.934,59.934,0,0,1,32.11-5.18c4.22.45,6.83-.77,9.42-4.04a60.075,60.075,0,0,1,26.18-19.31c6.43-2.43,12.46-.02,15.16,6.1,2.76,6.27.67,12.02-5.33,15.42-4.09,2.32-8.06,4.88-11.96,7.51-3,2.02-2.97,3.79.28,6.05a68.9,68.9,0,0,1,17.13,16.79,8.725,8.725,0,0,0-2.15,5.21c-.38,5.29,2.2,8.96,7.1,9.83,1,.18,2,.34,3,.49A12.452,12.452,0,0,1,216.94,117.159Z"/><path class="b" d="M164.811,47.972c9.654-4,13.788-13.75,9.86-23.26a17.882,17.882,0,1,0-33.138,13.452C145.561,47.85,155.249,51.932,164.811,47.972Z"/><path class="b" d="M457.98,214.439c-6.34,3.18-12.27,1.43-16.02-4.72-2.45-4.02-4.79-8.11-7.43-12-2.01-2.98-3.83-3.47-6.38.14a71.019,71.019,0,0,1-16.71,17.16,8.184,8.184,0,0,0-4.7-2.27c-5.46-.73-9.27,1.78-10.44,7.25-.19.91-.36,1.82-.5,2.73-5.64,1.07-11.66-1.65-13.77-6.74-2.3-5.56.78-12.2,6.29-15.51a160.206,160.206,0,0,0,15.98-11.32c1.87-1.46,3-3.86,5.13-6.72-10.34-2.52-18.96-.9-27.47,2.22-6.06,2.22-13.01-.41-15.61-5.89-2.22-4.67-.27-12.24,4.22-14.66.57.44,1.14.88,1.69,1.33,2.7,2.21,5.43,3.96,9.05,2.97,5.04-1.37,7.7-5.44,7.21-9.7a211.921,211.921,0,0,1,23.1-.42c3.93.12,5.1-.85,4.34-4.3-1.12-5.08-2.61-10.08-3.77-15.16-1.44-6.37,1.68-11.38,8.3-13.61a11.162,11.162,0,0,1,14,5.97,61.665,61.665,0,0,1,5.46,33.55c-.4,3.6.61,5.91,3.47,8.15a61.883,61.883,0,0,1,19.8,26.42C465.66,205.479,463.5,211.669,457.98,214.439Z"/><path class="b" d="M474.881,174.18a17.868,17.868,0,1,0-13.5-33.087c-9.676,4.023-13.729,13.7-9.751,23.288C455.654,174.085,465.317,178.156,474.881,174.18Z"/><path class="b" d="M129.53,334.979c-1.1-.86-2.19-1.71-3.32-2.52-5.93-4.3-13.39-1.76-14.46,5.41a8.332,8.332,0,0,0,.06,2.48,213.936,213.936,0,0,1-23.34.5c-3.8-.11-5.21.62-4.44,4.2,1.05,4.93,2.38,9.8,3.63,14.68,1.57,6.16-1.44,11.69-7.68,14.01a11.408,11.408,0,0,1-14.47-5.91c-4.55-9.66-6.73-19.94-5.53-30.51.68-5.98-1.15-9.6-5.72-13.21-8.07-6.38-13.71-14.81-17.49-24.41-2.48-6.28-.34-12.21,5.37-15.05,6.63-3.29,12.06-1.65,15.92,4.71,2.53,4.17,5.07,8.34,7.8,12.37,1.77,2.61,3.6,3.18,5.72-.08a64.111,64.111,0,0,1,17.02-17.51,8.717,8.717,0,0,0,5.79,2.18c5.22.13,8.74-3.06,9.32-8.19q.105-.975.24-1.95a12.905,12.905,0,0,1,13.76,6.38c2.92,5.42-.15,13.15-6.38,16.16-8.14,3.92-15.34,8.92-20.53,17.87,10.21,2.56,18.97.82,27.64-2.25a12.463,12.463,0,0,1,15.2,5.91C135.91,324.769,133.97,332.579,129.53,334.979Z"/><path class="b" d="M25.254,324.878c-9.42,3.882-13.788,14.049-9.988,23.248,3.89,9.415,14.064,13.753,23.286,9.927,9.741-4.04,13.846-13.661,9.9-23.212C44.443,325.12,34.759,320.962,25.254,324.878Z"/><path class="b" d="M367.21,434.569a60.354,60.354,0,0,1-31.62,4.94c-4.21-.48-6.85.74-9.42,4.02a61.053,61.053,0,0,1-25.65,19.15c-6.03,2.42-12.11.6-15.04-4.48-3.64-6.28-2.52-12.1,3.56-16.33,3.84-2.68,8.19-4.63,12.05-7.3,4.54-3.15,4.43-3.94.07-7.17a73.892,73.892,0,0,1-16.6-16.51,8.735,8.735,0,0,0,2.24-5.54c.22-5.05-2.77-8.8-7.55-9.51-.77-.12-1.55-.23-2.33-.34-1.17-5.88,1.5-11.88,6.77-13.96,5.8-2.3,12.23.98,15.69,6.88a139.463,139.463,0,0,0,11.42,15.9c1.35,1.71,3.68,2.63,6.17,4.32,2.92-10.01.94-18.71-2.12-27.35a12.5,12.5,0,0,1,5.72-15.26c4.54-2.39,12.45-.54,14.85,3.99-.49.65-1,1.29-1.53,1.91-3.9,4.6-4.12,10.07-.13,13.76a8.8,8.8,0,0,0,7.08,2.48c.57,7.73.61,15.52.41,23.26-.09,3.71.94,4.77,4.09,4.08,5.08-1.1,10.04-2.76,15.14-3.73,7.22-1.38,12.21,1.95,14.13,8.94C376.14,426.319,373.14,431.969,367.21,434.569Z"/><path class="b" d="M335.159,451.194c-9.672,4.033-13.738,13.722-9.768,23.271a17.884,17.884,0,1,0,33.081-13.6C354.443,451.217,344.747,447.2,335.159,451.194Z"/></g><g class="c"><path class="b" d="M408.42,253.429a46.256,46.256,0,0,1,5.84,23.63,10.1,10.1,0,0,1-1.67,5.58,8.25,8.25,0,0,1-5.9,3.64c-5.48.69-9.23-1.81-10.4-7.32-.31-1.46-.5-2.94-.68-4.43-.24-2.07-.45-4.14-.88-6.17-.86-4.11-1.45-4.27-5-2.17-8.56,5.07-17.65,8.18-27.77,7.78-5.29-.21-9.63-4.23-9.53-9.08.1-4.74,4.3-8.28,9.45-8.96a106.981,106.981,0,0,0,14.52-3.31c1.6-.44,2.93-1.8,4.85-3.05-6.15-5-12.83-6.19-19.79-6.59a9.513,9.513,0,0,1-9.01-8.52c-.34-3.91,3.35-8.95,7.26-9.23,3.56-.26,7.4-.58,10.71.43a165.531,165.531,0,0,1,19.96,7.72c2.57,1.16,3.62.75,4.07-1.66.55-2.98.86-6,1.35-8.99.14-.91.31-1.82.5-2.73,1.17-5.47,4.98-7.98,10.44-7.25a8.184,8.184,0,0,1,4.7,2.27,9.792,9.792,0,0,1,2.82,7,46,46,0,0,1-5.87,23.62A7.068,7.068,0,0,0,408.42,253.429Z"/><path class="b" d="M388.67,339.249c.23,3.09-1.48,5.53-3.68,7.61a50.022,50.022,0,0,1-21.14,12.24,5.4,5.4,0,0,0-4.25,4.21,50.745,50.745,0,0,1-12.46,21.45,10.481,10.481,0,0,1-6.3,3.41,8.8,8.8,0,0,1-7.08-2.48c-3.99-3.69-3.77-9.16.13-13.76.53-.62,1.04-1.26,1.53-1.91,2.03-2.64,3.93-5.55,6.3-8.84-12.39-2.42-21.93-7.04-29.84-14.9a9.087,9.087,0,0,1-2.52-9.53c1.01-3.47,3.78-5.98,7.28-6.02a13.826,13.826,0,0,1,7.92,2.75c5.37,4.06,10.65,7.99,18.98,8.88-1.84-4.45-3.16-8.35-5.05-11.94-1.29-2.46-3.32-4.55-5.1-6.74-3.71-4.57-3.47-9.15.75-12.97,3.64-3.3,8.6-3.08,12.44.64a49.577,49.577,0,0,1,13.6,23.77c.41,1.59.83,3.18,1.38,5.29a28.4,28.4,0,0,0,10.55-6.63c.17-.15.34-.3.51-.46,5.72-5.32,13.64-3.13,15.75,4.29A8.373,8.373,0,0,1,388.67,339.249Z"/><path class="b" d="M188.52,345.7c-7.37,7.84-16.53,12.46-26.96,14.76-.6.14-1.2.32-3.04.82,2.45,3.59,4.45,6.86,6.8,9.87.1.12.19.24.29.37,2.08,2.64,4.25,5.21,3.42,8.88a9.4,9.4,0,0,1-7.02,7.45,8.149,8.149,0,0,1-1.63.3,8.831,8.831,0,0,1-7.12-2.96,50.23,50.23,0,0,1-12.95-22.03,5.12,5.12,0,0,0-3.98-3.97c-8.29-2.41-15.81-6.43-21.65-12.78a12.769,12.769,0,0,1-2.87-6.06,8.332,8.332,0,0,1-.06-2.48c1.07-7.17,8.53-9.71,14.46-5.41,1.13.81,2.22,1.66,3.32,2.52,1.53,1.19,3.06,2.4,4.64,3.53a30.882,30.882,0,0,0,4.29,2.09c1.79-9.62,5.1-17.81,10.86-24.73a25.323,25.323,0,0,1,8.41-7.01c3.71-1.69,7.81.5,9.93,3.94,2.27,3.68,1.51,7.16-1.09,11.03-3.33,4.94-6.03,10.3-8.96,15.51a4.945,4.945,0,0,0-.39,1.86c-.03.21.18.45.42.98,7.04-.61,12.56-4.37,17.72-8.85,2.91-2.53,5.94-3.89,9.85-2.25A9.016,9.016,0,0,1,188.52,345.7Z"/><path class="b" d="M122.525,390.572a13.924,13.924,0,0,1-13.6-13.522c-.047-7.539,6.61-14.695,13.924-14.1,7.979.647,13.183,5.155,13.594,13.985C136.786,384.221,129.99,390.579,122.525,390.572Z"/><path class="b" d="M188.7,165.469c-3.64,3.94-8.52,4.34-12.7.75-5.02-4.33-10.29-8.12-17.01-9.29a13.38,13.38,0,0,0-1.97-.01,34.2,34.2,0,0,0,8.9,17.7c2.56,2.85,4.04,5.88,2.58,9.8-2.38,6.36-9.78,8.28-14.73,3.63-7.74-7.26-12.34-16.32-14.69-26.59-.17-.73-.34-1.46-.81-3.45-3.63,2.48-6.91,4.48-9.92,6.82l-.84.66c-2.48,1.96-4.94,3.81-8.41,3.06a9.019,9.019,0,0,1-7.34-6.57,9.487,9.487,0,0,1-.39-2.15,8.974,8.974,0,0,1,2.89-7,48.3,48.3,0,0,1,20.91-12.61c3.06-.92,4.58-2.34,5.49-5.4a48.1,48.1,0,0,1,12.55-20.95,9.912,9.912,0,0,1,5.9-2.9c4.4-.47,8.72,2.37,9.92,7.58.85,3.7-1.33,6.3-3.42,8.98l-.75.99c-2.08,2.76-3.98,5.6-5.71,8.04,8.01,3.8,15.12,6.94,21.97,10.55,2.66,1.4,4.9,3.74,7.08,5.9A8.922,8.922,0,0,1,188.7,165.469Z"/><path class="b" d="M108.929,121.9a13.914,13.914,0,0,1,13.663-13.454c7.452.028,14.245,6.46,13.862,13.706-.478,9.031-5.965,13.387-13.665,13.914C115.417,136.57,108.847,129.439,108.929,121.9Z"/><path class="b" d="M377.432,390.572c-7.31,0-14.063-6.449-14.174-13.533-.113-7.22,6.871-14.3,14-14.195,7.278.108,13.826,6.685,13.8,13.863C391.038,384.109,384.683,390.574,377.432,390.572Z"/><path class="b" d="M381.31,168.409c-3.62.99-6.35-.76-9.05-2.97-.55-.45-1.12-.89-1.69-1.33-2.63-2.01-5.46-3.92-8.6-6.2-1.06,3.59-1.8,6.12-2.56,8.64a48.5,48.5,0,0,1-12.06,20.35c-4.37,4.44-9.38,4.92-13.26,1.36-4.42-4.05-4.47-8.47-.12-13.53,4.07-4.73,7.45-9.82,8.57-16.12.09-.47.06-.96.13-2.09-7.49,1.29-13.19,4.74-18.32,9.37-3.41,3.08-6.92,3.52-10.6,1.54-3.52-1.9-5.37-5.14-4.56-9.33a11.667,11.667,0,0,1,3.04-5.55c7.65-7.94,17.27-12.25,28.38-14.48-.88-4.49-3.88-7.37-6.21-10.71-.04-.05-.08-.11-.12-.16-1.69-2.47-3.15-5.69-3.15-8.57,0-3.6,2.59-6.2,6.37-7.35a9.561,9.561,0,0,1,1.65-.35,8.672,8.672,0,0,1,7.48,2.84,46.424,46.424,0,0,1,11.97,19.1c1.33,4.3,3.38,6.69,7.86,7.99a42.958,42.958,0,0,1,19.11,11.89,10.4,10.4,0,0,1,2.95,5.96C389.01,162.969,386.35,167.039,381.31,168.409Z"/><path class="b" d="M377.319,108.445c7.268-.055,13.645,6.327,13.742,13.753.1,7.19-6.306,13.718-13.69,13.963-7.077.234-14.081-6.748-14.114-14.07C363.226,115.093,370.02,108.5,377.319,108.445Z"/><path class="b" d="M147.02,263.279c.89,3.73-.76,8.53-4.49,9.57-3.94,1.09-8.57,1.59-12.45.6a110.574,110.574,0,0,1-20.03-7.55c-3.18-1.51-4.2-.87-4.76,1.99q-.8,4.125-1.34,8.29-.135.975-.24,1.95c-.58,5.13-4.1,8.32-9.32,8.19a8.717,8.717,0,0,1-5.79-2.18,9.289,9.289,0,0,1-2.87-6.74,45.535,45.535,0,0,1,5.86-24.03,7.162,7.162,0,0,0-.05-7.8,45.609,45.609,0,0,1-5.81-24.05,9.839,9.839,0,0,1,1.59-5.16,8.468,8.468,0,0,1,7.17-3.66c5.2-.09,8.62,3.08,9.23,8.28.15,1.27.32,2.55.52,3.81.35,2.28.77,4.54,1.21,6.8.53,2.7,1.78,3.2,4.32,1.59a51.1,51.1,0,0,1,28.05-8.24,9.544,9.544,0,0,1,9.61,8.65c.51,5.04-3.94,9.14-9.61,9.41a36.53,36.53,0,0,0-17.24,4.9c-.56.33-1.18.56-2.53,1.2,6.85,5.23,13.39,6.56,20.25,6.93A8.823,8.823,0,0,1,147.02,263.279Z"/><path class="b" d="M56.367,249.329a13.407,13.407,0,0,1,13.79-13.421c7.824.056,13.438,5.833,13.389,13.78-.049,7.871-5.771,13.455-13.749,13.418A13.391,13.391,0,0,1,56.367,249.329Z"/><path class="b" d="M278.76,103.219c-1.34.2-2.68.39-4.03.59-2.2.31-4.4.64-6.58,1.07-2.68.53-3.56,1.66-1.78,4.52,5.38,8.66,8.6,18.03,8.09,28.44-.25,4.97-4.32,9.27-9.01,9.24-4.58-.04-8.32-4.15-9.01-8.99a121.117,121.117,0,0,0-3.22-14.55c-.47-1.73-1.81-3.24-3.19-5.57-4.82,6.5-6.23,13.02-6.56,19.9-.23,4.91-4.13,9-8.73,9.2-4,.18-8.83-3.55-9.06-7.48-.21-3.57-.5-7.38.51-10.71a154.1,154.1,0,0,1,7.56-19.59c1.25-2.71.92-3.82-1.73-4.3-2.89-.54-5.82-.91-8.73-1.35-1-.15-2-.31-3-.49-4.9-.87-7.48-4.54-7.1-9.83a8.725,8.725,0,0,1,2.15-5.21,8.589,8.589,0,0,1,6.18-2.84,46.744,46.744,0,0,1,25.12,6.08,6.134,6.134,0,0,0,6.74-.03,47.075,47.075,0,0,1,24.36-6.07,9.808,9.808,0,0,1,5.4,1.66,8.305,8.305,0,0,1,3.65,6.48C287.15,98.769,284.17,102.409,278.76,103.219Z"/><path class="b" d="M263.572,69.654c-.038,7.878-5.745,13.447-13.735,13.4-7.892-.042-13.48-5.742-13.441-13.711a13.589,13.589,0,1,1,27.176.307Z"/><path class="b" d="M286.8,405.349a8.7,8.7,0,0,1-8.41,8.4,42.693,42.693,0,0,1-23.02-5.14c-3.99-2.24-7.07-2.02-10.95.11a43.458,43.458,0,0,1-22.27,5.05,9.8,9.8,0,0,1-5.3-1.57,8.3,8.3,0,0,1-3.66-6.64c-.35-5.61,2.4-8.94,8-9.77,1.35-.2,2.71-.4,4.06-.61,2.31-.36,4.62-.75,6.91-1.2,2.36-.47,3.29-1.58,1.64-4.03-5.61-8.31-8.16-17.6-8.54-27.57a9.965,9.965,0,0,1,8.78-10.4c4.66-.44,9.17,3.99,9.44,9.25.35,6.86,1.72,13.39,6.46,19.66,4.81-6.4,6.18-13.05,6.59-20.04a9.474,9.474,0,0,1,8.63-8.9c3.9-.26,8.89,3.52,9.13,7.4.23,3.57.5,7.38-.5,10.71a157.012,157.012,0,0,1-7.54,19.63c-1.19,2.63-1.09,3.84,1.64,4.35,2.99.57,6.01,1.01,9.03,1.46.78.11,1.56.22,2.33.34C284.03,396.549,287.02,400.3,286.8,405.349Z"/><path class="b" d="M263.572,429.754a13.591,13.591,0,1,1-27.177-.478c.062-7.818,5.836-13.377,13.835-13.318C258.087,416.016,263.617,421.734,263.572,429.754Z"/><path class="b" d="M429.872,263.108c-7.865-.038-13.454-5.749-13.424-13.718.03-7.9,5.711-13.508,13.662-13.483a13.6,13.6,0,1,1-.238,27.2Z"/></g><path class="b" d="M169.592,225.034c-1.435,2.174-2.776,3.983-3.881,5.928-1.932,3.4-4.636,4.607-7.569,3.177s-4.15-4.569-2.28-7.837a47.652,47.652,0,0,1,7.227-9.859,8.815,8.815,0,0,0,2.807-6.633,50.674,50.674,0,0,1,1.724-11.331c1.033-3.845,4.191-5.377,7.37-4.235,2.917,1.047,4.066,4.072,3,7.661-.611,2.061-1.088,4.162-1.743,6.7,3.958,0,7.4-.192,10.8.065a29.765,29.765,0,0,1,7.109,1.536c4.012,1.341,5.539,3.945,4.59,7.224-.914,3.156-3.849,4.239-7.933,3.265-3.276-.782-6.633-1.217-9.955-1.806l-.849,1.56c1.812,1.745,3.555,3.571,5.465,5.2a21,21,0,0,0,3.345,1.893c2.9,1.653,3.812,4.132,2.63,7.194a5.07,5.07,0,0,1-7.444,2.5,115.483,115.483,0,0,1-11.595-8.72A23.282,23.282,0,0,1,169.592,225.034Z"/><path class="b" d="M145.448,208.628a7.723,7.723,0,0,1,8.011-8,8.132,8.132,0,0,1,8.239,8.329,8.411,8.411,0,0,1-8.378,7.9A7.946,7.946,0,0,1,145.448,208.628Z"/><path class="b" d="M278.536,179.394c-2.049,2.673-4.309,5.214-6.094,8.053-2.273,3.613-4.817,4.953-7.815,3.508-3.1-1.494-4.231-4.992-1.866-8.585,3.119-4.742,6.938-9.023,10.761-13.891-1.265-.82-3.109-2.122-5.052-3.252-3.373-1.96-4.55-4.71-3.125-7.627a5.3,5.3,0,0,1,7.89-2.186c3.7,2.215,6.924,5.213,10.487,7.679a13.306,13.306,0,0,0,4.878,2.14c4.131.8,8.422.9,12.469,1.964,3.868,1.018,5.346,4.273,4.145,7.4-1.1,2.873-4.123,3.978-7.714,2.919-2.03-.6-4.1-1.049-6.558-1.667,0,3.438.291,6.266-.072,9.007a52.462,52.462,0,0,1-2.314,10.427c-1.131,3.229-4.138,3.928-7.046,2.759-2.81-1.13-3.729-3.569-2.993-6.683.857-3.63,1.426-7.328,2.121-11Z"/><path class="b" d="M298.86,152.972a8.1,8.1,0,0,1-7.935,8.235,8.251,8.251,0,0,1-8.268-8.327,7.925,7.925,0,0,1,8.167-7.911A7.8,7.8,0,0,1,298.86,152.972Z"/><path class="b" d="M227.248,168.344c3.347,3.859,6.511,7.344,9.464,11a12.49,12.49,0,0,1,2.2,4.455c.822,3,.306,5.652-2.975,6.994-3.262,1.333-5.351-.193-7.08-2.838-1.99-3.042-4.1-6-6.642-9.689-2.674,5-.671,8.655-.16,12.421.256,1.889-.228,4.542-1.456,5.772-1.121,1.123-3.929,1.466-5.564.9a6.311,6.311,0,0,1-3.4-4.184c-1.035-5.6-1.522-11.3-2.3-17.625-1.465.307-3.782.675-6.031,1.292-3.478.954-6.278-.1-7.277-2.94-1.123-3.188.14-6.382,3.653-7.311a63.325,63.325,0,0,1,12.455-1.856,8.469,8.469,0,0,0,5.978-2.5,48.186,48.186,0,0,1,9.579-6.958c3.625-2.021,6.8-.947,8.235,2.049,1.491,3.112.271,5.723-3.443,7.739C230.606,166.085,228.854,167.33,227.248,168.344Z"/><path class="b" d="M210.746,160.5a8.266,8.266,0,0,1-8.391-7.847,8.25,8.25,0,0,1,16.5-.288A8.262,8.262,0,0,1,210.746,160.5Z"/><path class="b" d="M323.925,208.836c-.385-1.726-.836-4.059-1.432-6.355-.827-3.191.359-5.962,3.079-6.926,3.057-1.082,6.281.056,7.115,3.306,1.133,4.419,1.382,9.058,2.223,13.563a12.554,12.554,0,0,0,1.9,4.6c2.429,3.588,5.4,6.844,7.546,10.579a5.378,5.378,0,0,1-2.232,7.893c-2.963,1.445-5.633.309-7.591-3.131-1.1-1.939-2.332-3.808-3.306-5.388-4.358,3.575-8.243,6.845-12.236,9.977a9.32,9.32,0,0,1-3.486,1.564c-3.1.754-5.677,0-6.912-3.227-1.165-3.044.2-5.111,2.76-6.775,3.139-2.041,6.167-4.253,9.857-6.817-5.1-2.647-8.785-.513-12.6-.052-1.868.226-4.512-.384-5.687-1.652-1.088-1.173-1.287-3.919-.75-5.614a5.851,5.851,0,0,1,3.937-3.174C311.717,210.187,317.411,209.658,323.925,208.836Z"/><path class="b" d="M339.009,210.189a7.718,7.718,0,0,1,7.938-8.052,7.6,7.6,0,0,1,8.129,7.809,8.039,8.039,0,1,1-16.067.243Z"/><path class="b" d="M330.971,273.124c.886-1.4,2.218-3.362,3.416-5.407,1.809-3.09,4.538-4.181,7.388-2.837,2.912,1.373,4.173,4.271,2.447,7.434a43.49,43.49,0,0,1-7.051,9.972,9.626,9.626,0,0,0-3.086,7.278,47.372,47.372,0,0,1-2.067,11.652,5.238,5.238,0,0,1-7.058,3.564c-2.766-.978-4.055-4.05-3.1-7.3.5-1.724.97-3.462,1.383-5.21a7.985,7.985,0,0,0-.085-1.862c-3.5,0-6.945.255-10.333-.08a32.56,32.56,0,0,1-8.181-1.982c-3.265-1.231-4.524-4.222-3.289-7.2,1.249-3.007,3.741-3.619,6.707-3.05a76.869,76.869,0,0,0,11.251,1.561c-.986-4.066-3.882-5.867-6.831-7.511-4.219-2.351-5.542-5.052-3.789-8.24,1.643-2.987,5.043-3.943,8.707-1.5C322.027,265.5,326.186,269.3,330.971,273.124Z"/><path class="b" d="M346.409,298.388a8.108,8.108,0,0,1-8.11-8.023,8.279,8.279,0,0,1,8.413-8.2,8.036,8.036,0,0,1,7.818,8.3A7.808,7.808,0,0,1,346.409,298.388Z"/><path class="b" d="M272.774,330.6c-3.25-3.581-6.271-6.694-9.017-10.032a16.968,16.968,0,0,1-2.677-5.1c-1.18-3.334.083-6.165,3.063-7.311,3.294-1.268,5.32.4,7.032,3.023,1.98,3.036,4.12,5.969,6.637,9.59,2.335-4.669,1.187-8.084.184-11.461-1.177-3.962-.117-6.948,2.956-7.938,3.484-1.122,6.577.383,7.439,4.619,1.132,5.561,1.443,11.288,2.17,17.473a58.958,58.958,0,0,0,6.306-1.391c3.3-1.063,5.608.031,7,2.948a5.075,5.075,0,0,1-3.152,7.169,51.346,51.346,0,0,1-12.03,2.068c-3.007.133-5.139.733-7.353,2.991a38.916,38.916,0,0,1-9.017,6.452c-3.626,2-6.739,1.021-8.282-1.979-1.56-3.034-.321-5.768,3.38-7.788C269.272,332.916,271.024,331.694,272.774,330.6Z"/><path class="b" d="M289.236,338.519a7.832,7.832,0,0,1,8.126,7.9,7.613,7.613,0,0,1-7.771,8.161,8.017,8.017,0,0,1-8.475-8A8.222,8.222,0,0,1,289.236,338.519Z"/><path class="b" d="M209.071,322.77c0-3.671-.091-6.979.039-10.278a22.991,22.991,0,0,1,.837-4.915c1.511-5.732,4.069-7.9,7.9-6.844,3.566.988,4.176,3.658,2.73,9.709a64.9,64.9,0,0,0-.93,8.4l1.681.754a85.473,85.473,0,0,0,6.105-7.862c2.336-3.807,4.918-5.187,8.05-3.579,3.013,1.546,4.052,5.04,1.66,8.651-3.074,4.639-6.846,8.816-10.713,13.69,1.082.72,2.761,1.982,4.571,3.015,3.887,2.218,5.143,5,3.486,8.069-1.666,3.093-4.777,3.922-8.632,1.6-3.368-2.032-6.255-4.844-9.508-7.09a14.631,14.631,0,0,0-5.164-2.3c-4.235-.881-8.647-1.037-12.788-2.2a5.189,5.189,0,0,1-3.566-7.329c1.109-2.706,4.093-3.806,7.421-2.79,1.591.486,3.206.9,4.825,1.284A10.829,10.829,0,0,0,209.071,322.77Z"/><path class="b" d="M209.265,354.05a7.82,7.82,0,0,1-8.159-7.878,8.155,8.155,0,0,1,7.793-8.358,8.441,8.441,0,0,1,8.446,8.207A8.027,8.027,0,0,1,209.265,354.05Z"/><path class="b" d="M175.947,290.185c.387,1.686.8,4.043,1.484,6.316.992,3.272-.086,5.6-3.07,6.921a5.031,5.031,0,0,1-7.106-3.266c-1.126-4.284-1.322-8.8-2.191-13.168a15.094,15.094,0,0,0-2.225-5.228c-2.249-3.4-5.085-6.446-7.081-9.976-2.036-3.6-.949-6.767,2.051-8.241,3.112-1.528,5.687-.322,7.735,3.45,1.016,1.87,2.26,3.616,3.361,5.355,3.425-3.144,6.422-6.106,9.66-8.777a18.935,18.935,0,0,1,5.38-2.941c3.311-1.238,6.157.008,7.338,2.953,1.311,3.268-.264,5.335-2.9,7.057-3.035,1.987-5.983,4.107-9.645,6.635,5.023,2.7,8.676.642,12.442.11,1.8-.255,4.364.069,5.5,1.209a6.6,6.6,0,0,1,1.246,5.51,6.068,6.068,0,0,1-3.925,3.639C188.291,288.839,182.463,289.357,175.947,290.185Z"/><path class="b" d="M144.924,288.647a8,8,0,0,1,8.068-8.01,8.293,8.293,0,0,1,8,8.234,7.938,7.938,0,0,1-8.413,8.007C147.863,296.735,144.85,293.494,144.924,288.647Z"/></svg>