<svg xmlns="http://www.w3.org/2000/svg" viewBox="0 0 59.5318 77.979"><defs><style>.a{fill:#fff;opacity:0.55;}</style></defs><title>logo-footer</title><path class="a" d="M16.1763,21.8l5.1831-5.1826H38.1538L43.3364,21.8V56.3379L38.1538,61.52H21.3594l-5.1831-5.1816V21.8Zm40.2451-5.6367L43.6109,3.3867H15.875L2.9981,16.2724V61.8813L15.875,74.7661H43.6109l12.81-12.7427v-45.86Z"/><path class="a" d="M1.3169,62.6235V15.2558L15.2608,1.3281l29.1469-.0024,13.877,13.93V62.7226L44.3091,76.5747l-29.0483-.001L1.3169,62.6235ZM14.6709,0,0,14.666V63.2251L14.57,77.979H44.9136L59.5318,63.312V14.666L45.0152,0Z"/><path class="a" d="M22.8779,19.9375H36.6538l3.2842,3.2847V54.9829L36.7749,58.147H22.752l-3.1148-3.1158V23.1782l3.2407-3.2407Zm18.3873,2.789L37.15,18.6113H22.3028l-4.0577,4.0576V55.5034l3.97,3.9688H37.33l3.9356-3.9361v-32.81Z"/></svg>